# Blender v2.79 (sub 0) OBJ File: ''
# www.blender.org
mtllib box.mtl
o Cube
v 5.000000 -5.000000 -5.000000
v 5.000000 -5.000000 5.000000
v -5.000000 -5.000000 4.999999
v -4.999998 -5.000000 -5.000002
v 5.000002 5.000000 -4.999997
v 4.999997 5.000000 5.000003
v -5.000002 5.000000 4.999998
v -5.000000 5.000000 -5.000000
v 5.000000 -5.000000 -5.000000
v 5.000000 -5.000000 -5.000000
v 5.000000 -5.000000 -5.000000
v 5.000000 -5.000000 5.000000
v 5.000000 -5.000000 5.000000
v 5.000000 -5.000000 5.000000
v 5.000000 -5.000000 5.000000
v -4.999998 -5.000000 -5.000002
v -4.999998 -5.000000 -5.000002
v -4.999998 -5.000000 -5.000002
v 5.000002 5.000000 -4.999997
v 5.000002 5.000000 -4.999997
v 5.000002 5.000000 -4.999997
v -5.000000 -5.000000 4.999999
v -5.000000 -5.000000 4.999999
v -5.000000 -5.000000 4.999999
v -5.000000 -5.000000 4.999999
v 4.999997 5.000000 5.000003
v 4.999997 5.000000 5.000003
v 4.999997 5.000000 5.000003
v 4.999997 5.000000 5.000003
v -5.000002 5.000000 4.999998
v -5.000002 5.000000 4.999998
v -5.000000 5.000000 -5.000000
v -5.000000 5.000000 -5.000000
v -5.000000 5.000000 -5.000000
v -5.000000 5.000000 -5.000000
v -5.000000 5.000000 -5.000000
vt 0.333333 0.666667
vt 0.000000 1.000000
vt 0.000000 0.666667
vt 0.678970 0.681431
vt 0.345637 0.348098
vt 0.678971 0.348098
vt 0.333333 0.333333
vt 0.666667 0.000000
vt 0.666667 0.333333
vt 0.000000 0.000000
vt 0.333333 0.333333
vt 0.000000 0.333333
vt 1.000000 0.333333
vt 0.666667 0.000000
vt 1.000000 0.000000
vt 0.333333 0.333333
vt 0.000000 0.666667
vt 0.000000 0.333333
vt 0.333333 0.666667
vt 0.333333 1.000000
vt 0.000000 1.000000
vt 0.678970 0.681431
vt 0.345637 0.681431
vt 0.345637 0.348098
vt 0.333333 0.333333
vt 0.333333 0.000000
vt 0.666667 0.000000
vt 0.000000 0.000000
vt 0.333333 0.000000
vt 0.333333 0.333333
vt 1.000000 0.333333
vt 0.666667 0.333333
vt 0.666667 0.000000
vt 0.333333 0.333333
vt 0.333333 0.666667
vt 0.000000 0.666667
vn 0.0000 -1.0000 0.0000
vn 0.0000 1.0000 -0.0000
vn 1.0000 -0.0000 0.0000
vn -0.0000 -0.0000 1.0000
vn -1.0000 -0.0000 -0.0000
vn 0.0000 0.0000 -1.0000
usemtl Material
s off
f 12/1/1 16/2/1 9/3/1
f 33/4/2 27/5/2 20/6/2
f 19/7/3 14/8/3 10/9/3
f 26/10/4 22/11/4 13/12/4
f 23/13/5 32/14/5 17/15/5
f 11/16/6 35/17/6 21/18/6
f 15/19/1 25/20/1 4/21/1
f 34/22/2 31/23/2 28/24/2
f 5/25/3 29/26/3 2/27/3
f 6/28/4 30/29/4 24/30/4
f 3/31/5 7/32/5 8/33/5
f 1/34/6 18/35/6 36/36/6
