# Blender v2.79 (sub 0) OBJ File: ''
# www.blender.org
mtllib test.mtl
o Cube
v 1.638181 -0.556420 -0.376759
v 1.638181 -0.556420 1.623241
v -0.361819 -0.556420 1.623241
v -0.361818 -0.556420 -0.376759
v 1.638182 1.443580 -0.376759
v 1.638181 1.443580 1.623242
v -0.361819 1.443580 1.623241
v -0.361819 1.443580 -0.376759
v 0.638181 -0.556420 0.623241
v 0.638181 1.443580 0.623241
v 1.638181 0.443580 0.623241
v 0.638181 0.443580 1.623241
v -0.361819 0.443580 0.623241
v 0.638182 0.443580 -0.376759
vt 0.000000 0.000000
vt 1.000000 0.000000
vt 0.500000 0.500000
vt 0.000000 0.000000
vt 1.000000 0.000000
vt 0.500000 0.500000
vt 0.000000 0.000000
vt 1.000000 0.000000
vt 0.500000 0.500000
vt 0.000000 0.000000
vt 1.000000 0.000000
vt 0.500000 0.500000
vt 1.000000 0.000000
vt 0.500000 0.500000
vt 1.000000 0.000000
vt 0.500000 0.500000
vt 1.000000 1.000000
vt 0.000000 1.000000
vt 1.000000 1.000000
vt 0.000000 1.000000
vt 1.000000 1.000000
vt 0.000000 1.000000
vt 0.000000 1.000000
vt 1.000000 1.000000
vt 1.000000 1.000000
vt 0.000000 1.000000
vn 0.0000 1.0000 0.0000
vn 1.0000 -0.0000 0.0000
vn 0.0000 -0.0000 1.0000
vn -1.0000 -0.0000 -0.0000
vn 0.0000 0.0000 -1.0000
vn 0.0000 -1.0000 0.0000
usemtl Material
s off
f 5/1/1 8/2/1 10/3/1
f 1/4/2 5/5/2 11/6/2
f 2/7/3 6/8/3 12/9/3
f 3/10/4 7/11/4 13/12/4
f 5/1/5 1/13/5 14/14/5
f 1/4/6 2/15/6 9/16/6
f 2/15/6 3/17/6 9/16/6
f 3/17/6 4/18/6 9/16/6
f 4/18/6 1/4/6 9/16/6
f 8/2/1 7/19/1 10/3/1
f 7/19/1 6/20/1 10/3/1
f 6/20/1 5/1/1 10/3/1
f 5/5/2 6/21/2 11/6/2
f 6/21/2 2/22/2 11/6/2
f 2/22/2 1/4/2 11/6/2
f 6/8/3 7/19/3 12/9/3
f 7/19/3 3/23/3 12/9/3
f 3/23/3 2/7/3 12/9/3
f 7/11/4 8/24/4 13/12/4
f 8/24/4 4/18/4 13/12/4
f 4/18/4 3/10/4 13/12/4
f 1/13/5 4/25/5 14/14/5
f 4/25/5 8/26/5 14/14/5
f 8/26/5 5/1/5 14/14/5
