# Blender v2.79 (sub 0) OBJ File: ''
# www.blender.org
mtllib test2.mtl
o Plane_Plane.001
v -4.000000 0.000000 3.000000
v 4.000000 0.000000 3.000000
v -4.000000 0.000000 -3.000000
v 4.000000 0.000000 -3.000000
v -4.000000 3.010544 3.000000
v 4.000000 3.010544 3.000000
v -4.000000 3.010544 -3.000000
v 4.000000 3.010544 -3.000000
v 0.466659 5.482547 -1.289624
v 0.483964 5.555046 0.661466
v 2.985726 5.482547 0.558835
v 2.997524 5.482547 -1.526022
v 0.489165 7.188298 -1.320296
v 0.506471 7.260797 0.630795
v 3.008233 7.188298 0.528164
v 3.020031 7.188298 -1.556694
v 0.837628 8.025290 -1.097950
v 0.850323 8.078475 0.333363
v 2.685606 8.025290 0.258073
v 2.694262 8.025290 -1.271371
v 0.777454 9.380498 -1.219506
v 0.747731 9.436274 0.363504
v 2.779854 9.410105 0.335119
v 2.835170 9.413750 -1.355653
v 1.505898 10.175967 -1.232222
v 1.497719 10.231743 0.350788
v 2.056907 10.205574 0.322403
v 2.072129 10.209219 -1.368369
v 0.000000 0.000000 0.000000
v 3.579681 4.040869 -0.180421
v 0.000000 1.505272 -3.000000
v 0.000000 1.505272 3.000000
v 4.000000 1.505272 0.000000
v -4.000000 1.505272 0.000000
v 3.002878 6.335423 -0.498929
v -2.124446 4.061944 -0.103911
v 0.638261 4.034523 -2.338694
v 0.633278 4.054109 2.007138
v 1.760529 7.581373 -1.319343
v 0.486565 6.371672 -0.329415
v 1.743345 6.335423 -1.423159
v 1.746099 6.371672 0.594815
v 2.749563 8.728332 -0.509307
v 1.769207 7.612902 0.445930
v 2.862394 7.580046 -0.510897
v 0.660104 7.612341 -0.367365
v 1.132190 9.806127 -0.434001
v 0.802729 8.739364 -0.405017
v 1.795132 8.720429 -1.237497
v 1.772926 8.745921 0.322658
v 1.789888 10.205574 -0.488594
v 1.799595 9.731833 -1.292988
v 1.769036 9.757163 0.343982
v 2.436051 9.809641 -0.517322
v 3.875961 3.314601 -0.027578
v 0.000000 0.484523 -3.000000
v 0.000000 0.484523 3.000000
v 4.000000 0.484523 0.000000
v -4.000000 0.484523 0.000000
v 2.995706 5.792165 -0.488366
v -3.433603 3.328055 -0.017889
v 0.099459 3.313793 -2.804155
v 0.103755 3.322554 2.703149
v 1.758072 7.309022 -1.402054
v 0.479342 5.832254 -0.332330
v 1.735642 5.798397 -1.413445
v 1.755864 5.834903 0.603767
v 2.712170 8.287463 -0.507517
v 1.779903 7.343233 0.537701
v 2.968481 7.306164 -0.513759
v 0.547074 7.342033 -0.365051
v 0.882382 9.536684 -0.441001
v 0.828392 8.310073 -0.399196
v 1.775571 8.288845 -1.204558
v 1.781770 8.315166 0.305462
v 1.780002 10.213536 0.006795
v 1.794995 9.500802 -1.288646
v 1.772658 9.527066 0.347551
v 2.689037 9.538745 -0.511701
v -2.828427 0.000000 0.000000
v 0.000000 0.000000 -2.121320
v 2.828427 0.000000 0.000000
v 0.000000 0.000000 2.121320
v 3.514971 4.204933 -1.697800
v 3.230193 4.897766 -0.367235
v 3.516427 4.190683 1.261078
v -2.908861 1.505272 -3.000000
v 0.000000 2.526020 -3.000000
v 2.908861 1.505272 -3.000000
v 2.908861 1.505272 3.000000
v 0.000000 2.526020 3.000000
v -2.908861 1.505272 3.000000
v 4.000000 1.505272 -2.181646
v 4.000000 2.526020 0.000000
v 4.000000 1.505272 2.181646
v -4.000000 1.505272 2.181646
v -4.000000 2.526020 0.000000
v -4.000000 1.505272 -2.181646
v 3.007252 6.335887 -1.270759
v 3.010051 6.878679 -0.509492
v 2.998504 6.334958 0.272901
v -1.835616 4.235368 1.312753
v -0.607197 4.912335 -0.221757
v -1.840775 4.209078 -1.597145
v -1.150290 4.183307 -2.200932
v 1.295498 4.882807 -1.794906
v 2.720477 4.217281 -2.266853
v 2.718269 4.221286 1.814428
v 1.283510 4.907222 1.192878
v -1.138176 4.220219 1.879420
v 0.962286 7.599891 -1.239143
v 1.762867 7.873705 -1.230536
v 2.558949 7.598971 -1.388561
v 0.493083 6.406291 0.393812
v 0.493788 6.911090 -0.326500
v 0.480047 6.337053 -1.052641
v 0.804606 6.335133 -1.335471
v 1.751047 6.872448 -1.432873
v 2.682084 6.335712 -1.510848
v 2.674247 6.336794 0.556878
v 1.736333 6.908441 0.585863
v 0.817950 6.406551 0.632752
v 2.760721 8.721059 -1.105432
v 2.786560 9.164455 -0.510723
v 2.736998 8.719162 0.087984
v 2.556871 7.602742 0.409282
v 1.754355 7.902390 0.347587
v 0.978440 7.659021 0.470427
v 2.859103 7.598111 -1.165517
v 2.747607 7.876389 -0.507676
v 2.851551 7.598472 0.144148
v 0.675151 7.658128 0.247264
v 0.781849 7.903533 -0.367101
v 0.660151 7.602665 -0.981126
v 1.129733 9.831136 0.142042
v 1.382160 10.075567 -0.427283
v 1.134776 9.781098 -1.010496
v 0.799641 8.757240 0.154137
v 0.777079 9.164330 -0.410292
v 0.806590 8.705747 -0.963598
v 1.062373 8.703876 -1.178723
v 1.811111 9.147963 -1.269718
v 2.515423 8.721069 -1.294037
v 2.485564 8.719383 0.302987
v 1.760360 9.172747 0.339547
v 1.049581 8.758101 0.341876
v 1.994948 10.206952 -0.522835
v 1.797712 10.198189 -0.983099
v 1.575055 10.204691 -0.441613
v 1.314548 9.767967 -1.243361
v 1.797767 9.994779 -1.298165
v 2.274873 9.799084 -1.344128
v 2.246923 9.797577 0.332672
v 1.770449 10.018627 0.339966
v 1.298754 9.822057 0.353586
v 2.448438 9.811380 -1.130427
v 2.183010 10.080555 -0.522360
v 2.423597 9.807928 0.096645
vt 0.254679 0.153231
vt 0.378679 0.153231
vt 0.316053 0.182015
vt 0.510793 0.169159
vt 0.644065 0.213559
vt 0.567849 0.219158
vt 0.772053 0.279832
vt 0.693241 0.275654
vt 0.440905 0.188676
vt 0.469187 0.556265
vt 0.517972 0.585954
vt 0.484050 0.593205
vt 0.370898 0.324269
vt 0.470972 0.339625
vt 0.417423 0.357190
vt 0.254679 0.339884
vt 0.317534 0.355016
vt 0.564841 0.388540
vt 0.507112 0.386288
vt 0.286101 0.647052
vt 0.333064 0.654894
vt 0.308416 0.660146
vt 0.363402 0.521125
vt 0.416755 0.540511
vt 0.383161 0.555086
vt 0.310631 0.519896
vt 0.331949 0.544669
vt 0.434680 0.572278
vt 0.392661 0.741033
vt 0.428799 0.757655
vt 0.403977 0.767590
vt 0.375269 0.671736
vt 0.417885 0.681535
vt 0.393777 0.685310
vt 0.464475 0.704255
vt 0.436905 0.700850
vt 0.351510 0.671935
vt 0.292642 0.814047
vt 0.325222 0.826807
vt 0.306627 0.829449
vt 0.319614 0.718072
vt 0.356358 0.731246
vt 0.332262 0.742838
vt 0.283856 0.711149
vt 0.296389 0.733414
vt 0.368371 0.754571
vt 0.319486 0.893549
vt 0.325873 0.885127
vt 0.329621 0.893650
vt 0.255559 0.811009
vt 0.273882 0.820231
vt 0.357182 0.836467
vt 0.338638 0.838519
vt 0.392793 0.855207
vt 0.369978 0.853846
vt 0.710337 0.085567
vt 0.838329 0.151840
vt 0.764627 0.137448
vt 0.667132 0.464711
vt 0.600343 0.443981
vt 0.786447 0.206131
vt 0.717765 0.227952
vt 0.695945 0.159269
vt 0.584227 0.515612
vt 0.522486 0.536901
vt 0.529646 0.476061
vt 0.358406 0.239815
vt 0.313415 0.303293
vt 0.271061 0.245493
vt 0.588963 0.294686
vt 0.527486 0.336284
vt 0.506372 0.260756
vt 0.703889 0.362558
vt 0.630805 0.397667
vt 0.620157 0.310764
vt 0.475048 0.252259
vt 0.424765 0.304466
vt 0.390623 0.240884
vt 0.485020 0.641736
vt 0.450709 0.670799
vt 0.449740 0.622268
vt 0.434364 0.434429
vt 0.397906 0.482813
vt 0.378069 0.421677
vt 0.355975 0.418792
vt 0.331456 0.474784
vt 0.294479 0.426599
vt 0.507494 0.465548
vt 0.460757 0.503245
vt 0.454714 0.439854
vt 0.320766 0.684952
vt 0.303175 0.703089
vt 0.290672 0.679509
vt 0.389674 0.604384
vt 0.361084 0.639048
vt 0.354572 0.589749
vt 0.341801 0.587402
vt 0.314650 0.626814
vt 0.304798 0.584081
vt 0.437624 0.616652
vt 0.404868 0.652746
vt 0.401924 0.608371
vt 0.406115 0.804270
vt 0.381390 0.828628
vt 0.379536 0.791126
vt 0.400329 0.709078
vt 0.378295 0.725311
vt 0.371326 0.702709
vt 0.441261 0.727663
vt 0.416140 0.739298
vt 0.411274 0.713432
vt 0.360381 0.699200
vt 0.341090 0.713711
vt 0.331896 0.687569
vt 0.315552 0.882898
vt 0.315472 0.853482
vt 0.276868 0.870566
vt 0.298524 0.867714
vt 0.289676 0.843679
vt 0.336183 0.777843
vt 0.314384 0.803254
vt 0.310699 0.767440
vt 0.301410 0.765328
vt 0.278899 0.794707
vt 0.274273 0.761975
vt 0.370643 0.787273
vt 0.347208 0.814167
vt 0.345068 0.780694
vt 0.361412 0.907102
vt 0.342927 0.897220
vt 0.352823 0.914433
vt 0.350556 0.906438
vt 0.336923 0.902835
vt 0.281623 0.841137
vt 0.265436 0.872373
vt 0.271801 0.856802
vt 0.263828 0.841196
vt 0.339093 0.859113
vt 0.325810 0.870821
vt 0.323472 0.855104
vt 0.372214 0.878391
vt 0.348671 0.888115
vt 0.346428 0.863566
vt 0.564461 0.486542
vt 0.314734 0.242654
vt 0.547668 0.277721
vt 0.662023 0.336661
vt 0.432835 0.246571
vt 0.467381 0.632006
vt 0.408561 0.415420
vt 0.324418 0.410126
vt 0.485161 0.440102
vt 0.305884 0.680856
vt 0.372220 0.597089
vt 0.323298 0.585744
vt 0.419685 0.612458
vt 0.392628 0.798276
vt 0.386407 0.704648
vt 0.426933 0.719318
vt 0.346389 0.692028
vt 0.302512 0.848588
vt 0.323333 0.773209
vt 0.287561 0.764193
vt 0.357728 0.784497
vt 0.340109 0.900034
vt 0.272859 0.837317
vt 0.332602 0.853632
vt 0.359331 0.870980
vt 0.741196 0.182700
vn 0.0000 0.0000 -1.0000
vn 0.0000 0.0000 1.0000
vn 1.0000 0.0000 0.0000
vn -1.0000 0.0000 0.0000
vn 0.9999 -0.0131 0.0057
vn -0.4890 0.8723 0.0000
vn 0.0000 0.5425 -0.8400
vn 0.0000 0.6893 0.7245
vn -0.0890 0.2902 -0.9528
vn -0.9999 0.0133 0.0084
vn -0.0930 -0.0167 -0.9955
vn 0.0415 0.0174 0.9990
vn 0.9964 -0.0845 0.0056
vn 0.0481 0.3235 0.9450
vn 0.9325 0.3611 0.0053
vn -0.9226 0.3857 -0.0062
vn -0.7323 0.6799 -0.0377
vn -0.9982 -0.0595 0.0111
vn -0.0928 -0.0716 -0.9931
vn 0.0398 -0.0390 0.9984
vn 0.0460 0.9988 -0.0151
vn -0.0657 -0.0174 -0.9977
vn 0.0142 0.0157 0.9998
vn 0.7304 0.6826 0.0254
vn 0.0000 -1.0000 0.0000
vn 0.9259 0.3777 0.0000
vn 0.9269 0.3753 0.0010
vn 0.9255 0.3786 0.0052
vn 0.9248 0.3805 0.0010
vn -0.4956 0.8685 -0.0053
vn -0.4904 0.8711 -0.0280
vn -0.4826 0.8758 -0.0054
vn -0.0137 0.5856 -0.8105
vn -0.0758 0.5791 -0.8117
vn -0.0148 0.5076 -0.8614
vn 0.0091 0.7045 0.7096
vn 0.0498 0.6695 0.7412
vn 0.0090 0.6680 0.7441
vn 0.9948 -0.0998 0.0198
vn 0.9959 -0.0844 0.0324
vn 0.9974 -0.0690 0.0199
vn -0.9226 0.3857 -0.0061
vn -0.7275 0.6854 -0.0329
vn -0.7325 0.6802 -0.0278
vn -0.7374 0.6747 -0.0326
vn -0.9972 -0.0753 -0.0031
vn -0.9980 -0.0604 -0.0166
vn -0.9990 -0.0447 -0.0042
vn -0.0775 -0.0925 -0.9927
vn -0.0647 -0.0726 -0.9953
vn -0.0781 -0.0525 -0.9956
vn 0.0254 -0.0573 0.9980
vn 0.0135 -0.0391 0.9991
vn 0.0262 -0.0202 0.9995
vn -0.0064 1.0000 0.0021
vn -0.0624 0.9979 -0.0159
vn -0.0118 0.9993 -0.0353
vn -0.0962 0.0722 -0.9927
vn -0.2326 -0.0208 -0.9724
vn -0.0919 -0.1039 -0.9903
vn 0.0207 0.0348 0.9992
vn 0.0514 0.0151 0.9986
vn 0.0200 -0.0029 0.9998
vn 0.7214 0.6923 0.0165
vn 0.7307 0.6826 0.0081
vn 0.7398 0.6726 0.0169
vn 0.7307 0.6826 0.0080
usemtl None
s off
f 4/1/1 3/2/1 56/3/1
f 1/4/2 2/5/2 57/6/2
f 2/5/3 4/7/3 58/8/3
f 3/2/4 1/4/4 59/9/4
f 11/10/5 12/11/5 60/12/5
f 7/13/6 5/14/6 61/15/6
f 8/16/7 7/13/7 62/17/7
f 5/14/8 6/18/8 63/19/8
f 16/20/9 13/21/9 64/22/9
f 9/23/10 10/24/10 65/25/10
f 12/26/11 9/23/11 66/27/11
f 10/24/12 11/10/12 67/28/12
f 19/29/13 20/30/13 68/31/13
f 14/32/14 15/33/14 69/34/14
f 15/33/15 16/35/15 70/36/15
f 13/21/16 14/32/16 71/37/16
f 21/38/17 22/39/17 72/40/17
f 17/41/18 18/42/18 73/43/18
f 20/44/19 17/41/19 74/45/19
f 18/42/20 19/29/20 75/46/20
f 26/47/21 27/48/21 76/49/21
f 24/50/22 21/38/22 77/51/22
f 22/39/23 23/52/23 78/53/23
f 23/52/24 24/54/24 79/55/24
f 1/56/25 3/57/25 80/58/25
f 6/18/26 8/59/26 55/60/26
f 3/57/25 4/7/25 81/61/25
f 4/7/25 2/5/25 82/62/25
f 2/5/25 1/56/25 83/63/25
f 8/59/27 12/11/27 84/64/27
f 12/11/28 11/10/28 85/65/28
f 11/10/29 6/18/29 86/66/29
f 3/2/1 7/13/1 87/67/1
f 7/13/1 8/16/1 88/68/1
f 8/16/1 4/1/1 89/69/1
f 2/5/2 6/18/2 90/70/2
f 6/18/2 5/14/2 91/71/2
f 5/14/2 1/4/2 92/72/2
f 4/7/3 8/59/3 93/73/3
f 8/59/3 6/18/3 94/74/3
f 6/18/3 2/5/3 95/75/3
f 1/4/4 5/14/4 96/76/4
f 5/14/4 7/13/4 97/77/4
f 7/13/4 3/2/4 98/78/4
f 12/11/5 16/35/5 99/79/5
f 16/35/5 15/33/5 100/80/5
f 15/33/5 11/10/5 101/81/5
f 5/14/30 10/24/30 102/82/30
f 10/24/31 9/23/31 103/83/31
f 9/23/32 7/13/32 104/84/32
f 7/13/33 9/23/33 105/85/33
f 9/23/34 12/26/34 106/86/34
f 12/26/35 8/16/35 107/87/35
f 6/18/36 11/10/36 108/88/36
f 11/10/37 10/24/37 109/89/37
f 10/24/38 5/14/38 110/90/38
f 13/21/9 17/41/9 111/91/9
f 17/41/9 20/44/9 112/92/9
f 20/44/9 16/20/9 113/93/9
f 10/24/10 14/32/10 114/94/10
f 14/32/10 13/21/10 115/95/10
f 13/21/10 9/23/10 116/96/10
f 9/23/11 13/21/11 117/97/11
f 13/21/11 16/20/11 118/98/11
f 16/20/11 12/26/11 119/99/11
f 11/10/12 15/33/12 120/100/12
f 15/33/12 14/32/12 121/101/12
f 14/32/12 10/24/12 122/102/12
f 20/30/39 24/54/39 123/103/39
f 24/54/40 23/52/40 124/104/40
f 23/52/41 19/29/41 125/105/41
f 15/33/14 19/29/14 126/106/14
f 19/29/14 18/42/14 127/107/14
f 18/42/14 14/32/14 128/108/14
f 16/35/15 20/30/15 129/109/15
f 20/30/15 19/29/15 130/110/15
f 19/29/15 15/33/15 131/111/15
f 14/32/16 18/42/16 132/112/16
f 18/42/16 17/41/16 133/113/16
f 17/41/42 13/21/42 134/114/42
f 22/39/43 26/115/43 135/116/43
f 26/115/44 25/117/44 136/118/44
f 25/117/45 21/38/45 137/119/45
f 18/42/46 22/39/46 138/120/46
f 22/39/47 21/38/47 139/121/47
f 21/38/48 17/41/48 140/122/48
f 17/41/49 21/38/49 141/123/49
f 21/38/50 24/50/50 142/124/50
f 24/50/51 20/44/51 143/125/51
f 19/29/52 23/52/52 144/126/52
f 23/52/53 22/39/53 145/127/53
f 22/39/54 18/42/54 146/128/54
f 27/48/55 28/129/55 147/130/55
f 28/129/56 25/131/56 148/132/56
f 25/131/57 26/47/57 149/133/57
f 21/38/58 25/117/58 150/134/58
f 25/117/59 28/135/59 151/136/59
f 28/135/60 24/50/60 152/137/60
f 23/52/61 27/48/61 153/138/61
f 27/48/62 26/115/62 154/139/62
f 26/115/63 22/39/63 155/140/63
f 24/54/64 28/129/64 156/141/64
f 28/129/65 27/48/65 157/142/65
f 27/48/66 23/52/66 158/143/66
f 8/59/26 30/144/26 55/60/26
f 30/144/26 6/18/26 55/60/26
f 3/2/1 31/145/1 56/3/1
f 31/145/1 4/1/1 56/3/1
f 2/5/2 32/146/2 57/6/2
f 32/146/2 1/4/2 57/6/2
f 4/7/3 33/147/3 58/8/3
f 33/147/3 2/5/3 58/8/3
f 1/4/4 34/148/4 59/9/4
f 34/148/4 3/2/4 59/9/4
f 12/11/5 35/149/5 60/12/5
f 35/149/5 11/10/5 60/12/5
f 5/14/6 36/150/6 61/15/6
f 36/150/6 7/13/6 61/15/6
f 7/13/7 37/151/7 62/17/7
f 37/151/7 8/16/7 62/17/7
f 6/18/8 38/152/8 63/19/8
f 38/152/8 5/14/8 63/19/8
f 13/21/9 39/153/9 64/22/9
f 39/153/9 16/20/9 64/22/9
f 10/24/10 40/154/10 65/25/10
f 40/154/10 9/23/10 65/25/10
f 9/23/11 41/155/11 66/27/11
f 41/155/11 12/26/11 66/27/11
f 11/10/12 42/156/12 67/28/12
f 42/156/12 10/24/12 67/28/12
f 20/30/13 43/157/13 68/31/13
f 43/157/13 19/29/13 68/31/13
f 15/33/14 44/158/14 69/34/14
f 44/158/14 14/32/14 69/34/14
f 16/35/15 45/159/15 70/36/15
f 45/159/15 15/33/15 70/36/15
f 14/32/16 46/160/16 71/37/16
f 46/160/16 13/21/16 71/37/16
f 22/39/17 47/161/17 72/40/17
f 47/161/17 21/38/17 72/40/17
f 18/42/18 48/162/18 73/43/18
f 48/162/18 17/41/18 73/43/18
f 17/41/19 49/163/19 74/45/19
f 49/163/19 20/44/19 74/45/19
f 19/29/20 50/164/20 75/46/20
f 50/164/20 18/42/20 75/46/20
f 27/48/21 51/165/21 76/49/21
f 51/165/21 26/47/21 76/49/21
f 21/38/22 52/166/22 77/51/22
f 52/166/22 24/50/22 77/51/22
f 23/52/23 53/167/23 78/53/23
f 53/167/23 22/39/23 78/53/23
f 24/54/24 54/168/24 79/55/24
f 54/168/24 23/52/24 79/55/24
f 3/57/25 29/169/25 80/58/25
f 29/169/25 1/56/25 80/58/25
f 4/7/25 29/169/25 81/61/25
f 29/169/25 3/57/25 81/61/25
f 2/5/25 29/169/25 82/62/25
f 29/169/25 4/7/25 82/62/25
f 1/56/25 29/169/25 83/63/25
f 29/169/25 2/5/25 83/63/25
f 12/11/27 30/144/27 84/64/27
f 30/144/27 8/59/27 84/64/27
f 11/10/28 30/144/28 85/65/28
f 30/144/28 12/11/28 85/65/28
f 6/18/29 30/144/29 86/66/29
f 30/144/29 11/10/29 86/66/29
f 7/13/1 31/145/1 87/67/1
f 31/145/1 3/2/1 87/67/1
f 8/16/1 31/145/1 88/68/1
f 31/145/1 7/13/1 88/68/1
f 4/1/1 31/145/1 89/69/1
f 31/145/1 8/16/1 89/69/1
f 6/18/2 32/146/2 90/70/2
f 32/146/2 2/5/2 90/70/2
f 5/14/2 32/146/2 91/71/2
f 32/146/2 6/18/2 91/71/2
f 1/4/2 32/146/2 92/72/2
f 32/146/2 5/14/2 92/72/2
f 8/59/3 33/147/3 93/73/3
f 33/147/3 4/7/3 93/73/3
f 6/18/3 33/147/3 94/74/3
f 33/147/3 8/59/3 94/74/3
f 2/5/3 33/147/3 95/75/3
f 33/147/3 6/18/3 95/75/3
f 5/14/4 34/148/4 96/76/4
f 34/148/4 1/4/4 96/76/4
f 7/13/4 34/148/4 97/77/4
f 34/148/4 5/14/4 97/77/4
f 3/2/4 34/148/4 98/78/4
f 34/148/4 7/13/4 98/78/4
f 16/35/5 35/149/5 99/79/5
f 35/149/5 12/11/5 99/79/5
f 15/33/5 35/149/5 100/80/5
f 35/149/5 16/35/5 100/80/5
f 11/10/5 35/149/5 101/81/5
f 35/149/5 15/33/5 101/81/5
f 10/24/30 36/150/30 102/82/30
f 36/150/30 5/14/30 102/82/30
f 9/23/31 36/150/31 103/83/31
f 36/150/31 10/24/31 103/83/31
f 7/13/32 36/150/32 104/84/32
f 36/150/32 9/23/32 104/84/32
f 9/23/33 37/151/33 105/85/33
f 37/151/33 7/13/33 105/85/33
f 12/26/34 37/151/34 106/86/34
f 37/151/34 9/23/34 106/86/34
f 8/16/35 37/151/35 107/87/35
f 37/151/35 12/26/35 107/87/35
f 11/10/36 38/152/36 108/88/36
f 38/152/36 6/18/36 108/88/36
f 10/24/37 38/152/37 109/89/37
f 38/152/37 11/10/37 109/89/37
f 5/14/38 38/152/38 110/90/38
f 38/152/38 10/24/38 110/90/38
f 17/41/9 39/153/9 111/91/9
f 39/153/9 13/21/9 111/91/9
f 20/44/9 39/153/9 112/92/9
f 39/153/9 17/41/9 112/92/9
f 16/20/9 39/153/9 113/93/9
f 39/153/9 20/44/9 113/93/9
f 14/32/10 40/154/10 114/94/10
f 40/154/10 10/24/10 114/94/10
f 13/21/10 40/154/10 115/95/10
f 40/154/10 14/32/10 115/95/10
f 9/23/10 40/154/10 116/96/10
f 40/154/10 13/21/10 116/96/10
f 13/21/11 41/155/11 117/97/11
f 41/155/11 9/23/11 117/97/11
f 16/20/11 41/155/11 118/98/11
f 41/155/11 13/21/11 118/98/11
f 12/26/11 41/155/11 119/99/11
f 41/155/11 16/20/11 119/99/11
f 15/33/12 42/156/12 120/100/12
f 42/156/12 11/10/12 120/100/12
f 14/32/12 42/156/12 121/101/12
f 42/156/12 15/33/12 121/101/12
f 10/24/12 42/156/12 122/102/12
f 42/156/12 14/32/12 122/102/12
f 24/54/39 43/157/39 123/103/39
f 43/157/39 20/30/39 123/103/39
f 23/52/40 43/157/40 124/104/40
f 43/157/40 24/54/40 124/104/40
f 19/29/41 43/157/41 125/105/41
f 43/157/41 23/52/41 125/105/41
f 19/29/14 44/158/14 126/106/14
f 44/158/14 15/33/14 126/106/14
f 18/42/14 44/158/14 127/107/14
f 44/158/14 19/29/14 127/107/14
f 14/32/14 44/158/14 128/108/14
f 44/158/14 18/42/14 128/108/14
f 20/30/15 45/159/15 129/109/15
f 45/159/15 16/35/15 129/109/15
f 19/29/15 45/159/15 130/110/15
f 45/159/15 20/30/15 130/110/15
f 15/33/15 45/159/15 131/111/15
f 45/159/15 19/29/15 131/111/15
f 18/42/42 46/160/42 132/112/42
f 46/160/16 14/32/16 132/112/16
f 17/41/42 46/160/42 133/113/42
f 46/160/16 18/42/16 133/113/16
f 13/21/16 46/160/16 134/114/16
f 46/160/16 17/41/16 134/114/16
f 26/115/43 47/161/43 135/116/43
f 47/161/43 22/39/43 135/116/43
f 25/117/44 47/161/44 136/118/44
f 47/161/44 26/115/44 136/118/44
f 21/38/45 47/161/45 137/119/45
f 47/161/45 25/117/45 137/119/45
f 22/39/46 48/162/46 138/120/46
f 48/162/46 18/42/46 138/120/46
f 21/38/47 48/162/47 139/121/47
f 48/162/47 22/39/47 139/121/47
f 17/41/48 48/162/48 140/122/48
f 48/162/48 21/38/48 140/122/48
f 21/38/49 49/163/49 141/123/49
f 49/163/49 17/41/49 141/123/49
f 24/50/50 49/163/50 142/124/50
f 49/163/50 21/38/50 142/124/50
f 20/44/51 49/163/51 143/125/51
f 49/163/51 24/50/51 143/125/51
f 23/52/52 50/164/52 144/126/52
f 50/164/52 19/29/52 144/126/52
f 22/39/53 50/164/53 145/127/53
f 50/164/53 23/52/53 145/127/53
f 18/42/54 50/164/54 146/128/54
f 50/164/54 22/39/54 146/128/54
f 28/129/55 51/165/55 147/130/55
f 51/165/55 27/48/55 147/130/55
f 25/131/56 51/165/56 148/132/56
f 51/165/56 28/129/56 148/132/56
f 26/47/57 51/165/57 149/133/57
f 51/165/57 25/131/57 149/133/57
f 25/117/58 52/166/58 150/134/58
f 52/166/58 21/38/58 150/134/58
f 28/135/59 52/166/59 151/136/59
f 52/166/59 25/117/59 151/136/59
f 24/50/60 52/166/60 152/137/60
f 52/166/60 28/135/60 152/137/60
f 27/48/61 53/167/61 153/138/61
f 53/167/61 23/52/61 153/138/61
f 26/115/62 53/167/62 154/139/62
f 53/167/62 27/48/62 154/139/62
f 22/39/63 53/167/63 155/140/63
f 53/167/63 26/115/63 155/140/63
f 28/129/64 54/168/64 156/141/64
f 54/168/64 24/54/64 156/141/64
f 27/48/67 54/168/67 157/142/67
f 54/168/67 28/129/67 157/142/67
f 23/52/66 54/168/66 158/143/66
f 54/168/66 27/48/66 158/143/66
